# xmcd CD database file
#
# Track frame offsets:
#	151
#	25954
#	48308
#	69490
#	83961
#	101817
#	118357
#	141101
#	162925
#	180788
#	202296
#	228141
#	248243
#
# Disc length: 3553 seconds
#
# Revision: 0
# Processed by: cddbd v1.5.1PL0 Copyright (c) Steve Scherf et al.
# Submitted via: CDex 1.51
#
DISCID=b30ddf0d
DTITLE=Michael and Golden - Together We Praise
DYEAR=2002
DGENRE=Worship
TTITLE0=Amazing Grace
TTITLE1=Better is One Day
TTITLE2=I'm Speechless
TTITLE3=Family of God
TTITLE4=Good to Me
TTITLE5=Yeshua Sheli
TTITLE6=I Give You My Love
TTITLE7=Your Mercy Endures
TTITLE8=How Great Thou Art
TTITLE9=I Have Been Crucified With Christ
TTITLE10=Medley- O How He Loves You and Me - Just as I am - My Peace
TTITLE11=You Can Have My Heart
TTITLE12=Hope To Carry On
EXTD=YEAR: 2002
EXTT0=
EXTT1=
EXTT2=
EXTT3=
EXTT4=
EXTT5=
EXTT6=
EXTT7=
EXTT8=
EXTT9=
EXTT10=
EXTT11=
EXTT12=
PLAYORDER=
